<svg width="20" height="21" viewBox="0 0 20 21" fill="none" xmlns="http://www.w3.org/2000/svg">
<g clip-path="url(#clip0_822_126)">
<path d="M16.8419 12.4985C17.0708 12.4986 17.2935 12.4277 17.4762 12.2967C17.659 12.1657 17.7918 11.9817 17.8545 11.7726L19.9597 4.77346C20.0043 4.62466 20.012 4.46806 19.9821 4.31596C19.9522 4.16387 19.8856 4.02045 19.7874 3.89697C19.6893 3.7735 19.5623 3.67335 19.4165 3.6044C19.2707 3.53545 19.11 3.49958 18.9471 3.49962H5.02098L4.39467 1.24491C4.3354 1.03141 4.2034 0.842558 4.01927 0.707807C3.83514 0.573056 3.60923 0.499987 3.37679 0.5H1.05262C0.773445 0.5 0.505708 0.605344 0.308304 0.792856C0.1109 0.980369 0 1.23469 0 1.49987C0 1.76506 0.1109 2.01938 0.308304 2.20689C0.505708 2.39441 0.773445 2.49975 1.05262 2.49975H2.56628L3.19785 4.75447V4.76447V4.77346L5.30308 11.7726L6.08833 14.7582C5.56848 14.9772 5.12052 15.3254 4.79175 15.7661C4.46297 16.2069 4.26559 16.7237 4.22044 17.2622C4.17529 17.8007 4.28404 18.3407 4.53523 18.8253C4.78641 19.31 5.17069 19.7211 5.6475 20.0155C6.12431 20.3099 6.67595 20.4764 7.24417 20.4977C7.81239 20.5189 8.37611 20.394 8.87579 20.1362C9.37547 19.8783 9.79258 19.497 10.0831 19.0327C10.3736 18.5683 10.5266 18.038 10.5262 17.4979C10.5227 17.1565 10.4572 16.8182 10.3325 16.498H12.8251C12.7004 16.8182 12.6349 17.1565 12.6314 17.4979C12.6314 18.0911 12.8166 18.6711 13.1636 19.1644C13.5106 19.6577 14.0038 20.0421 14.5808 20.2692C15.1578 20.4962 15.7928 20.5556 16.4053 20.4399C17.0179 20.3241 17.5806 20.0384 18.0222 19.6189C18.4638 19.1994 18.7646 18.6649 18.8864 18.0831C19.0083 17.5012 18.9457 16.8981 18.7067 16.35C18.4677 15.8019 18.063 15.3334 17.5437 15.0038C17.0243 14.6742 16.4138 14.4982 15.7892 14.4982H8.18936L7.66305 12.4985H16.8419ZM8.42093 17.4979C8.42093 17.6956 8.3592 17.8889 8.24354 18.0534C8.12787 18.2178 7.96348 18.346 7.77114 18.4216C7.57879 18.4973 7.36715 18.5171 7.16296 18.4785C6.95877 18.44 6.77121 18.3447 6.624 18.2049C6.47679 18.0651 6.37654 17.8869 6.33593 17.6929C6.29531 17.499 6.31615 17.2979 6.39583 17.1152C6.4755 16.9325 6.61041 16.7764 6.78351 16.6665C6.95662 16.5566 7.16013 16.498 7.36832 16.498C7.64749 16.498 7.91522 16.6033 8.11263 16.7909C8.31003 16.9784 8.42093 17.2327 8.42093 17.4979ZM15.7892 18.4977C15.5811 18.4977 15.3775 18.4391 15.2044 18.3292C15.0313 18.2194 14.8964 18.0632 14.8168 17.8805C14.7371 17.6978 14.7162 17.4968 14.7569 17.3028C14.7975 17.1088 14.8977 16.9307 15.0449 16.7909C15.1921 16.651 15.3797 16.5558 15.5839 16.5172C15.7881 16.4786 15.9997 16.4984 16.1921 16.5741C16.3844 16.6498 16.5488 16.7779 16.6645 16.9424C16.7801 17.1068 16.8419 17.3001 16.8419 17.4979C16.8419 17.7631 16.731 18.0174 16.5336 18.2049C16.3362 18.3924 16.0684 18.4977 15.7892 18.4977Z" fill="white"/>
</g>
<defs>
<clipPath id="clip0_822_126">
<rect width="20" height="20" fill="white" transform="translate(0 0.5)"/>
</clipPath>
</defs>
</svg>
