<svg width="12" height="13" viewBox="0 0 12 13" fill="none" xmlns="http://www.w3.org/2000/svg">
<path d="M6.01475 10C5.69651 9.99993 5.39134 9.87723 5.16635 9.65886L0.366346 5.00174C0.251734 4.89434 0.160315 4.76586 0.0974242 4.62382C0.0345334 4.48177 0.00142989 4.32899 4.53085e-05 4.1744C-0.00133927 4.01981 0.0290225 3.86649 0.0893596 3.72341C0.149697 3.58032 0.2388 3.45033 0.351472 3.34101C0.464143 3.23169 0.598125 3.14524 0.745601 3.0867C0.893077 3.02816 1.05109 2.9987 1.21043 3.00004C1.36976 3.00139 1.52723 3.03351 1.67363 3.09452C1.82004 3.15554 1.95245 3.24424 2.06315 3.35544L6.01475 7.18942L9.96635 3.35544C10.1927 3.14336 10.4958 3.02601 10.8104 3.02866C11.1251 3.03131 11.426 3.15376 11.6485 3.36962C11.871 3.58549 11.9972 3.87751 12 4.18278C12.0027 4.48805 11.8817 4.78215 11.6631 5.00174L6.86314 9.65886C6.63815 9.87723 6.33298 9.99993 6.01475 10Z" fill="white"/>
</svg>
