<svg width="12" height="13" viewBox="0 0 12 13" fill="none" xmlns="http://www.w3.org/2000/svg">
<path d="M10.8017 9.98569C10.4839 9.98563 10.179 9.86291 9.95433 9.64455L6.00749 5.81043L2.06066 9.64455C1.95009 9.75575 1.81784 9.84445 1.67161 9.90547C1.52538 9.96649 1.36811 9.99861 1.20897 9.99996C1.04982 10.0013 0.892 9.97184 0.744702 9.9133C0.597404 9.85475 0.463583 9.7683 0.351048 9.65898C0.238512 9.54965 0.149516 9.41966 0.0892518 9.27657C0.0289875 9.13347 -0.00133766 8.98016 4.52538e-05 8.82556C0.00142816 8.67096 0.0344918 8.51818 0.0973067 8.37613C0.160122 8.23407 0.25143 8.1056 0.365904 7.99819L5.16012 3.3409C5.38488 3.12262 5.68968 3 6.00749 3C6.32531 3 6.63011 3.12262 6.85487 3.3409L11.6491 7.99819C11.8167 8.16102 11.9308 8.36847 11.977 8.59429C12.0232 8.82011 11.9995 9.05418 11.9088 9.2669C11.8181 9.47962 11.6645 9.66145 11.4674 9.78939C11.2704 9.91733 11.0387 9.98564 10.8017 9.98569Z" fill="white"/>
</svg>
