<svg width="20" height="21" viewBox="0 0 20 21" fill="none" xmlns="http://www.w3.org/2000/svg">
<g clip-path="url(#clip0_822_93)">
<path d="M9.36302 10.363C9.03411 10.3628 8.71023 10.4437 8.42005 10.5985C8.12987 10.7534 7.88236 10.9774 7.69945 11.2507C7.51654 11.5241 7.40386 11.8384 7.37141 12.1657C7.33896 12.493 7.38773 12.8232 7.5134 13.1272C7.63908 13.4312 7.83777 13.6994 8.09189 13.9082C8.34601 14.1171 8.64771 14.26 8.97025 14.3243C9.2928 14.3887 9.62624 14.3725 9.94104 14.2772C10.2558 14.1819 10.5423 14.0104 10.775 13.778C11.054 13.4981 11.2438 13.1419 11.3205 12.7542C11.3972 12.3666 11.3574 11.9649 11.206 11.5998C11.0546 11.2348 10.7985 10.9228 10.4699 10.7032C10.1414 10.4836 9.75518 10.3663 9.36002 10.366L9.36302 10.363Z" fill="white"/>
<path d="M7.00009 5.5V0.63C6.51248 0.765802 6.06751 1.02357 5.70712 1.379L2.87921 4.207C2.52379 4.56739 2.26603 5.01238 2.13023 5.5H7.00009Z" fill="white"/>
<path d="M16.0658 0.5H9.00003V5.5C9.00003 6.03043 8.78932 6.53914 8.41426 6.91421C8.0392 7.28929 7.5305 7.5 7.00009 7.5H2.00023V18.5C1.99221 19.0215 2.19128 19.5248 2.55381 19.8998C2.91634 20.2747 3.41274 20.4905 3.93418 20.5H16.0658C16.5873 20.4905 17.0837 20.2747 17.4462 19.8998C17.8087 19.5248 18.0078 19.0215 17.9998 18.5V2.5C18.0078 1.97853 17.8087 1.47515 17.4462 1.10024C17.0837 0.725324 16.5873 0.509469 16.0658 0.5ZM14.3439 17.344C14.1563 17.5315 13.902 17.6368 13.6369 17.6368C13.3717 17.6368 13.1174 17.5315 12.9299 17.344L11.383 15.8C10.7728 16.1668 10.075 16.3624 9.36302 16.366C8.57192 16.366 7.79858 16.1314 7.1408 15.6919C6.48303 15.2524 5.97035 14.6276 5.66761 13.8967C5.36487 13.1658 5.28566 12.3616 5.43999 11.5856C5.59433 10.8097 5.97528 10.097 6.53467 9.53757C7.09407 8.97816 7.80678 8.5972 8.58268 8.44286C9.35858 8.28852 10.1628 8.36773 10.8937 8.67048C11.6246 8.97323 12.2493 9.48592 12.6888 10.1437C13.1283 10.8015 13.3629 11.5749 13.3629 12.366C13.3593 13.078 13.1637 13.7758 12.7969 14.386L14.3439 15.933C14.5304 16.1204 14.6352 16.3741 14.6352 16.6385C14.6352 16.9029 14.5304 17.1566 14.3439 17.344Z" fill="white"/>
</g>
<defs>
<clipPath id="clip0_822_93">
<rect width="20" height="20" fill="white" transform="translate(0 0.5)"/>
</clipPath>
</defs>
</svg>
