<svg width="12" height="13" viewBox="0 0 12 13" fill="none" xmlns="http://www.w3.org/2000/svg">
<g clip-path="url(#clip0_805_875)">
<path d="M4.09533 0.5H1.238C0.554271 0.5 0 1.05427 0 1.738V4.59533C0 5.27906 0.554271 5.83333 1.238 5.83333H4.09533C4.77906 5.83333 5.33333 5.27906 5.33333 4.59533V1.738C5.33333 1.05427 4.77906 0.5 4.09533 0.5Z" fill="white"/>
<path d="M10.762 0.5H7.90467C7.22094 0.5 6.66667 1.05427 6.66667 1.738V4.59533C6.66667 5.27906 7.22094 5.83333 7.90467 5.83333H10.762C11.4457 5.83333 12 5.27906 12 4.59533V1.738C12 1.05427 11.4457 0.5 10.762 0.5Z" fill="white"/>
<path d="M4.09533 7.16667H1.238C0.554271 7.16667 0 7.72094 0 8.40467V11.262C0 11.9457 0.554271 12.5 1.238 12.5H4.09533C4.77906 12.5 5.33333 11.9457 5.33333 11.262V8.40467C5.33333 7.72094 4.77906 7.16667 4.09533 7.16667Z" fill="white"/>
<path d="M10.762 7.16667H7.90467C7.22094 7.16667 6.66667 7.72094 6.66667 8.40467V11.262C6.66667 11.9457 7.22094 12.5 7.90467 12.5H10.762C11.4457 12.5 12 11.9457 12 11.262V8.40467C12 7.72094 11.4457 7.16667 10.762 7.16667Z" fill="white"/>
</g>
<defs>
<clipPath id="clip0_805_875">
<rect width="12" height="12" fill="white" transform="translate(0 0.5)"/>
</clipPath>
</defs>
</svg>
