<svg width="20" height="21" viewBox="0 0 20 21" fill="none" xmlns="http://www.w3.org/2000/svg">
<g clip-path="url(#clip0_822_832)">
<path d="M17.1296 1.5H13.7909C13.6135 1.19696 13.3581 0.945042 13.0503 0.769523C12.7424 0.594003 12.393 0.501054 12.037 0.5H7.96294C7.60696 0.501054 7.25752 0.594003 6.94968 0.769523C6.64184 0.945042 6.38642 1.19696 6.20905 1.5H2.87035C2.33009 1.5 1.81197 1.71071 1.42995 2.08579C1.04793 2.46086 0.833313 2.96957 0.833313 3.5V18.5C0.833313 19.0304 1.04793 19.5391 1.42995 19.9142C1.81197 20.2893 2.33009 20.5 2.87035 20.5H17.1296C17.6699 20.5 18.188 20.2893 18.57 19.9142C18.952 19.5391 19.1666 19.0304 19.1666 18.5V3.5C19.1666 2.96957 18.952 2.46086 18.57 2.08579C18.188 1.71071 17.6699 1.5 17.1296 1.5ZM7.96294 2.5H12.037V4.5H7.96294V2.5ZM5.92591 15.5C5.72446 15.5 5.52754 15.4414 5.36005 15.3315C5.19255 15.2216 5.06201 15.0654 4.98492 14.8827C4.90783 14.7 4.88766 14.4989 4.92696 14.3049C4.96626 14.1109 5.06326 13.9327 5.2057 13.7929C5.34815 13.653 5.52963 13.5578 5.7272 13.5192C5.92478 13.4806 6.12957 13.5004 6.31568 13.5761C6.50179 13.6518 6.66086 13.78 6.77277 13.9444C6.88469 14.1089 6.94442 14.3022 6.94442 14.5C6.94442 14.7652 6.83712 15.0196 6.64611 15.2071C6.4551 15.3946 6.19603 15.5 5.92591 15.5ZM5.92591 11.5C5.72446 11.5 5.52754 11.4414 5.36005 11.3315C5.19255 11.2216 5.06201 11.0654 4.98492 10.8827C4.90783 10.7 4.88766 10.4989 4.92696 10.3049C4.96626 10.1109 5.06326 9.93275 5.2057 9.79289C5.34815 9.65304 5.52963 9.5578 5.7272 9.51921C5.92478 9.48063 6.12957 9.50043 6.31568 9.57612C6.50179 9.65181 6.66086 9.77998 6.77277 9.94443C6.88469 10.1089 6.94442 10.3022 6.94442 10.5C6.94442 10.7652 6.83712 11.0196 6.64611 11.2071C6.4551 11.3946 6.19603 11.5 5.92591 11.5ZM14.0741 15.5H8.98146C8.71133 15.5 8.45227 15.3946 8.26126 15.2071C8.07025 15.0196 7.96294 14.7652 7.96294 14.5C7.96294 14.2348 8.07025 13.9804 8.26126 13.7929C8.45227 13.6054 8.71133 13.5 8.98146 13.5H14.0741C14.3442 13.5 14.6032 13.6054 14.7943 13.7929C14.9853 13.9804 15.0926 14.2348 15.0926 14.5C15.0926 14.7652 14.9853 15.0196 14.7943 15.2071C14.6032 15.3946 14.3442 15.5 14.0741 15.5ZM14.0741 11.5H8.98146C8.71133 11.5 8.45227 11.3946 8.26126 11.2071C8.07025 11.0196 7.96294 10.7652 7.96294 10.5C7.96294 10.2348 8.07025 9.98043 8.26126 9.79289C8.45227 9.60536 8.71133 9.5 8.98146 9.5H14.0741C14.3442 9.5 14.6032 9.60536 14.7943 9.79289C14.9853 9.98043 15.0926 10.2348 15.0926 10.5C15.0926 10.7652 14.9853 11.0196 14.7943 11.2071C14.6032 11.3946 14.3442 11.5 14.0741 11.5Z" fill="white"/>
</g>
<defs>
<clipPath id="clip0_822_832">
<rect width="20" height="20" fill="white" transform="translate(0 0.5)"/>
</clipPath>
</defs>
</svg>
