<svg width="20" height="21" viewBox="0 0 20 21" fill="none" xmlns="http://www.w3.org/2000/svg">
<path d="M11.6667 7.16683V5.50016C11.6667 5.05814 11.4911 4.63421 11.1785 4.32165C10.866 4.00909 10.442 3.8335 10 3.8335H4.16667C3.72464 3.8335 3.30072 4.00909 2.98816 4.32165C2.67559 4.63421 2.5 5.05814 2.5 5.50016V15.5002C2.5 15.9422 2.67559 16.3661 2.98816 16.6787C3.30072 16.9912 3.72464 17.1668 4.16667 17.1668H10C10.442 17.1668 10.866 16.9912 11.1785 16.6787C11.4911 16.3661 11.6667 15.9422 11.6667 15.5002V13.8335" stroke="white" stroke-width="2" stroke-linecap="round" stroke-linejoin="round"/>
<path d="M7.5 10.5H17.5M17.5 10.5L15 8M17.5 10.5L15 13" stroke="white" stroke-width="2" stroke-linecap="round" stroke-linejoin="round"/>
</svg>
