<svg width="20" height="21" viewBox="0 0 20 21" fill="none" xmlns="http://www.w3.org/2000/svg">
<g clip-path="url(#clip0_805_782)">
<path d="M20 6.55263C20 5.20211 18.374 1.99474 17.876 1.04421C17.7896 0.879306 17.6627 0.741826 17.5086 0.646105C17.3546 0.550384 17.1789 0.499929 17 0.5H3C2.82283 0.499925 2.64883 0.549396 2.49579 0.643353C2.34275 0.737309 2.21617 0.872377 2.129 1.03474C1.63 1.96632 0 5.11579 0 6.55263C0.000436187 7.01232 0.089259 7.46715 0.261118 7.88975C0.432978 8.31234 0.684318 8.69395 1 9.01158V19.4474C1 19.7265 1.10536 19.9943 1.29289 20.1917C1.48043 20.3891 1.73478 20.5 2 20.5H4C4.26522 20.5 4.51957 20.3891 4.70711 20.1917C4.89464 19.9943 5 19.7265 5 19.4474V13.1316H9V19.4474C9 19.7265 9.10536 19.9943 9.29289 20.1917C9.48043 20.3891 9.73478 20.5 10 20.5H18C18.2652 20.5 18.5196 20.3891 18.7071 20.1917C18.8946 19.9943 19 19.7265 19 19.4474V8.96737C19.3104 8.65469 19.5586 8.2802 19.7303 7.86566C19.9019 7.45112 19.9936 7.0048 20 6.55263ZM3.591 2.60526H16.4C17.0905 3.84415 17.6282 5.17063 18 6.55263C17.9795 6.89452 17.8412 7.21678 17.6111 7.45901C17.3809 7.70125 17.0748 7.84681 16.75 7.86842C16.4186 7.86786 16.101 7.72906 15.8667 7.48242C15.6324 7.23578 15.5005 6.90143 15.5 6.55263C15.5 6.27346 15.3946 6.00572 15.2071 5.80831C15.0196 5.6109 14.7652 5.5 14.5 5.5C14.2348 5.5 13.9804 5.6109 13.7929 5.80831C13.6054 6.00572 13.5 6.27346 13.5 6.55263C13.5 6.9016 13.3683 7.23628 13.1339 7.48304C12.8995 7.72979 12.5815 7.86842 12.25 7.86842C11.9185 7.86842 11.6005 7.72979 11.3661 7.48304C11.1317 7.23628 11 6.9016 11 6.55263C11 6.27346 10.8946 6.00572 10.7071 5.80831C10.5196 5.6109 10.2652 5.5 10 5.5C9.73478 5.5 9.48043 5.6109 9.29289 5.80831C9.10536 6.00572 9 6.27346 9 6.55263C9 6.9016 8.8683 7.23628 8.63388 7.48304C8.39946 7.72979 8.08152 7.86842 7.75 7.86842C7.41848 7.86842 7.10054 7.72979 6.86612 7.48304C6.6317 7.23628 6.5 6.9016 6.5 6.55263C6.5 6.27346 6.39464 6.00572 6.20711 5.80831C6.01957 5.6109 5.76522 5.5 5.5 5.5C5.23478 5.5 4.98043 5.6109 4.79289 5.80831C4.60536 6.00572 4.5 6.27346 4.5 6.55263C4.49947 6.90143 4.36761 7.23578 4.1333 7.48242C3.89899 7.72906 3.58136 7.86786 3.25 7.86842C2.91977 7.86406 2.60423 7.72403 2.3707 7.47821C2.13718 7.23239 2.00415 6.90024 2 6.55263C2.35426 5.16569 2.8897 3.83722 3.591 2.60526ZM15.5 15.2368C15.5 15.3764 15.4473 15.5103 15.3536 15.609C15.2598 15.7077 15.1326 15.7632 15 15.7632H12C11.8674 15.7632 11.7402 15.7077 11.6464 15.609C11.5527 15.5103 11.5 15.3764 11.5 15.2368V12.0789C11.5 11.9394 11.5527 11.8055 11.6464 11.7068C11.7402 11.6081 11.8674 11.5526 12 11.5526H15C15.1326 11.5526 15.2598 11.6081 15.3536 11.7068C15.4473 11.8055 15.5 11.9394 15.5 12.0789V15.2368Z" fill="white"/>
</g>
<defs>
<clipPath id="clip0_805_782">
<rect width="20" height="20" fill="white" transform="translate(0 0.5)"/>
</clipPath>
</defs>
</svg>
