<svg width="20" height="21" viewBox="0 0 20 21" fill="none" xmlns="http://www.w3.org/2000/svg">
<g clip-path="url(#clip0_805_771)">
<path d="M6.82556 0.5H2.06333C0.923786 0.5 0 1.42379 0 2.56333V7.32556C0 8.4651 0.923786 9.38889 2.06333 9.38889H6.82556C7.9651 9.38889 8.88889 8.4651 8.88889 7.32556V2.56333C8.88889 1.42379 7.9651 0.5 6.82556 0.5Z" fill="white"/>
<path d="M17.9367 0.5H13.1744C12.0349 0.5 11.1111 1.42379 11.1111 2.56333V7.32556C11.1111 8.4651 12.0349 9.38889 13.1744 9.38889H17.9367C19.0762 9.38889 20 8.4651 20 7.32556V2.56333C20 1.42379 19.0762 0.5 17.9367 0.5Z" fill="white"/>
<path d="M6.82556 11.6111H2.06333C0.923786 11.6111 0 12.5349 0 13.6744V18.4367C0 19.5762 0.923786 20.5 2.06333 20.5H6.82556C7.9651 20.5 8.88889 19.5762 8.88889 18.4367V13.6744C8.88889 12.5349 7.9651 11.6111 6.82556 11.6111Z" fill="white"/>
<path d="M17.9367 11.6111H13.1744C12.0349 11.6111 11.1111 12.5349 11.1111 13.6744V18.4367C11.1111 19.5762 12.0349 20.5 13.1744 20.5H17.9367C19.0762 20.5 20 19.5762 20 18.4367V13.6744C20 12.5349 19.0762 11.6111 17.9367 11.6111Z" fill="white"/>
</g>
<defs>
<clipPath id="clip0_805_771">
<rect width="20" height="20" fill="white" transform="translate(0 0.5)"/>
</clipPath>
</defs>
</svg>
