<svg width="20" height="21" viewBox="0 0 20 21" fill="none" xmlns="http://www.w3.org/2000/svg">
<path d="M9 3.40161C7.06 2.71601 1.646 1.38862 0.293 2.77102C0.107156 2.96027 0.00190241 3.21644 0 3.48412V16.4219C4.45921e-06 16.6007 0.0462139 16.7763 0.133984 16.9312C0.221754 17.0861 0.347993 17.2147 0.500011 17.3041C0.652029 17.3935 0.824472 17.4406 1.00001 17.4406C1.17554 17.4406 1.34798 17.3935 1.5 17.3041C2.559 17.0086 7.765 18.0926 9 18.8321V3.40161Z" fill="white"/>
<path d="M19.707 2.77102C18.353 1.38964 12.94 2.71601 11 3.40161V18.8332C12.234 18.0936 17.436 17.0107 18.5 17.3051C18.6521 17.3945 18.8246 17.4416 19.0002 17.4416C19.1759 17.4415 19.3484 17.3944 19.5004 17.3048C19.6525 17.2153 19.7787 17.0866 19.8664 16.9316C19.9541 16.7766 20.0002 16.6008 20 16.4219V3.48412C19.9981 3.21644 19.8928 2.96027 19.707 2.77102Z" fill="white"/>
</svg>
