<svg width="20" height="21" viewBox="0 0 20 21" fill="none" xmlns="http://www.w3.org/2000/svg">
<path d="M18.2563 7.89981C17.8916 7.84684 17.5435 7.71227 17.238 7.50614C16.9326 7.3 16.6775 7.02761 16.4919 6.70924C16.3063 6.39087 16.1949 6.03474 16.166 5.66735C16.1371 5.29996 16.1915 4.93078 16.325 4.58731C16.4099 4.36276 16.4224 4.11728 16.3608 3.88526C16.2991 3.65325 16.1664 3.44635 15.9813 3.29356C15.1638 2.6071 14.2333 2.06784 13.2313 1.69981C13.0031 1.61505 12.754 1.60446 12.5194 1.66955C12.2849 1.73464 12.0769 1.87208 11.925 2.06231C11.6964 2.35459 11.4043 2.59099 11.0708 2.75357C10.7372 2.91615 10.3711 3.00064 10 3.00064C9.62897 3.00064 9.26279 2.91615 8.92926 2.75357C8.59572 2.59099 8.30359 2.35459 8.07501 2.06231C7.92315 1.87208 7.71513 1.73464 7.48059 1.66955C7.24604 1.60446 6.99694 1.61505 6.76876 1.69981C5.84356 2.03959 4.97851 2.52486 4.20626 3.13731C4.0116 3.29141 3.87139 3.50379 3.80616 3.74334C3.74093 3.98289 3.75411 4.23704 3.84376 4.46856C3.98799 4.82112 4.04757 5.20256 4.01775 5.58231C3.98792 5.96205 3.86951 6.32952 3.67201 6.65524C3.47452 6.98095 3.20343 7.25585 2.88051 7.45788C2.55758 7.6599 2.1918 7.78343 1.81251 7.81856C1.56627 7.84489 1.33498 7.94958 1.15271 8.11723C0.970433 8.28488 0.846801 8.50662 0.800014 8.74981C0.683637 9.32587 0.625014 9.91211 0.625014 10.4998C0.624158 10.9918 0.663876 11.4831 0.743764 11.9686C0.783523 12.2195 0.904855 12.4504 1.089 12.6255C1.27315 12.8007 1.50985 12.9102 1.76251 12.9373C2.15014 12.9737 2.5234 13.1024 2.85108 13.3126C3.17875 13.5229 3.4513 13.8085 3.64591 14.1457C3.84052 14.4829 3.95152 14.8618 3.96963 15.2507C3.98775 15.6397 3.91244 16.0272 3.75001 16.3811C3.64372 16.6112 3.61735 16.8703 3.6751 17.1171C3.73285 17.364 3.8714 17.5844 4.06876 17.7436C4.88133 18.4176 5.80287 18.9481 6.79376 19.3123C6.92048 19.3562 7.05343 19.3794 7.18751 19.3811C7.37137 19.3807 7.55245 19.3362 7.71557 19.2514C7.87869 19.1665 8.0191 19.0438 8.12501 18.8936C8.34777 18.569 8.64638 18.3037 8.99491 18.1207C9.34344 17.9378 9.73137 17.8426 10.125 17.8436C10.5064 17.844 10.8825 17.9336 11.2232 18.105C11.5639 18.2764 11.8598 18.5251 12.0875 18.8311C12.239 19.0346 12.4535 19.1824 12.6977 19.2514C12.9418 19.3203 13.202 19.3066 13.4375 19.2123C14.3436 18.8477 15.1871 18.3437 15.9375 17.7186C16.126 17.5627 16.2603 17.3511 16.3209 17.1141C16.3815 16.8772 16.3655 16.6271 16.275 16.3998C16.128 16.0518 16.0639 15.6744 16.0878 15.2973C16.1117 14.9203 16.2228 14.554 16.4125 14.2273C16.6023 13.9006 16.8653 13.6225 17.1809 13.4149C17.4966 13.2073 17.8561 13.0759 18.2313 13.0311C18.4745 12.9974 18.7007 12.8872 18.8771 12.7164C19.0536 12.5456 19.171 12.3231 19.2125 12.0811C19.3129 11.5598 19.3673 11.0306 19.375 10.4998C19.3751 9.9399 19.3228 9.38121 19.2188 8.83106C19.1766 8.59437 19.0609 8.377 18.8881 8.20983C18.7153 8.04265 18.4942 7.93418 18.2563 7.89981ZM13.125 10.4998C13.125 11.1179 12.9417 11.7221 12.5984 12.236C12.255 12.7499 11.7669 13.1504 11.1959 13.3869C10.6249 13.6235 9.99655 13.6853 9.39036 13.5648C8.78417 13.4442 8.22734 13.1466 7.79031 12.7095C7.35327 12.2725 7.05564 11.7157 6.93506 11.1095C6.81448 10.5033 6.87637 9.87494 7.11289 9.30392C7.34941 8.7329 7.74995 8.24485 8.26386 7.90147C8.77776 7.55809 9.38195 7.37481 10 7.37481C10.8288 7.37481 11.6237 7.70405 12.2097 8.2901C12.7958 8.87615 13.125 9.67101 13.125 10.4998Z" fill="white"/>
</svg>
