<svg width="20" height="21" viewBox="0 0 20 21" fill="none" xmlns="http://www.w3.org/2000/svg">
<g clip-path="url(#clip0_822_131)">
<path d="M7.99 19.7685C7.66134 19.4244 7.43106 18.9914 7.32506 18.518C7.21906 18.0447 7.24155 17.5498 7.39 17.0891C6.97325 16.8732 6.62236 16.5402 6.37681 16.1274C6.13125 15.7146 6.00076 15.2384 6 14.7524V13.7074C6.00001 13.221 6.12995 12.7443 6.37517 12.3309C6.62039 11.9175 6.97116 11.5839 7.388 11.3676C7.36715 11.2776 7.35079 11.1866 7.339 11.0948H5C3.67441 11.0965 2.40356 11.6475 1.46622 12.627C0.528882 13.6066 0.00158786 14.9346 0 16.3199V19.455C0 19.7321 0.105357 19.9979 0.292893 20.1939C0.48043 20.3899 0.734784 20.5 1 20.5H8.687L7.99 19.7685Z" fill="white"/>
<path d="M19.5 13.1849H18.38C18.2672 12.6709 18.0714 12.1807 17.801 11.7354L18.601 10.9046C18.6947 10.8066 18.7474 10.6738 18.7474 10.5352C18.7474 10.3967 18.6947 10.2638 18.601 10.1658L17.894 9.42696C17.8002 9.32901 17.6731 9.27398 17.5405 9.27398C17.4079 9.27398 17.2808 9.32901 17.187 9.42696L16.392 10.263C15.9647 9.97806 15.4939 9.77165 15 9.65269V8.48226C15 8.34369 14.9473 8.21078 14.8536 8.11279C14.7598 8.0148 14.6326 7.95975 14.5 7.95975H13.5C13.3674 7.95975 13.2402 8.0148 13.1464 8.11279C13.0527 8.21078 13 8.34369 13 8.48226V9.65269C12.5081 9.7706 12.0391 9.97522 11.613 10.2578L10.818 9.42696C10.7242 9.32901 10.5971 9.27398 10.4645 9.27398C10.3319 9.27398 10.2048 9.32901 10.111 9.42696L9.404 10.1658C9.31026 10.2638 9.25761 10.3967 9.25761 10.5352C9.25761 10.6738 9.31026 10.8066 9.404 10.9046L10.204 11.7406C9.9324 12.184 9.73492 12.6723 9.62 13.1849H8.5C8.36739 13.1849 8.24021 13.2399 8.14645 13.3379C8.05268 13.4359 8 13.5688 8 13.7074V14.7524C8 14.891 8.05268 15.0239 8.14645 15.1219C8.24021 15.2198 8.36739 15.2749 8.5 15.2749H9.62C9.73283 15.7889 9.92863 16.2791 10.199 16.7243L9.404 17.5551C9.31026 17.6531 9.25761 17.786 9.25761 17.9245C9.25761 18.0631 9.31026 18.196 9.404 18.294L10.111 19.0328C10.2048 19.1307 10.3319 19.1858 10.4645 19.1858C10.5971 19.1858 10.7242 19.1307 10.818 19.0328L11.618 18.1968C12.0422 18.4806 12.5096 18.687 13 18.8071V19.9775C13 20.1161 13.0527 20.249 13.1464 20.347C13.2402 20.445 13.3674 20.5 13.5 20.5H14.5C14.6326 20.5 14.7598 20.445 14.8536 20.347C14.9473 20.249 15 20.1161 15 19.9775V18.8071C15.4919 18.6892 15.9609 18.4845 16.387 18.202L17.182 19.038C17.2758 19.136 17.4029 19.191 17.5355 19.191C17.6681 19.191 17.7952 19.136 17.889 19.038L18.596 18.2992C18.6897 18.2012 18.7424 18.0683 18.7424 17.9298C18.7424 17.7912 18.6897 17.6583 18.596 17.5604L17.796 16.7296C18.0686 16.283 18.2662 15.7911 18.38 15.2749H19.5C19.6326 15.2749 19.7598 15.2198 19.8536 15.1219C19.9473 15.0239 20 14.891 20 14.7524V13.7074C20 13.5688 19.9473 13.4359 19.8536 13.3379C19.7598 13.2399 19.6326 13.1849 19.5 13.1849ZM14 16.8424C13.5055 16.8424 13.0222 16.6892 12.6111 16.4021C12.2 16.1151 11.8795 15.707 11.6903 15.2297C11.5011 14.7523 11.4516 14.227 11.548 13.7202C11.6445 13.2134 11.8826 12.7479 12.2322 12.3825C12.5819 12.0172 13.0273 11.7683 13.5123 11.6675C13.9972 11.5667 14.4999 11.6185 14.9567 11.8162C15.4135 12.0139 15.804 12.3488 16.0787 12.7784C16.3534 13.2081 16.5 13.7132 16.5 14.2299C16.5 14.9228 16.2366 15.5873 15.7678 16.0772C15.2989 16.5672 14.663 16.8424 14 16.8424Z" fill="white"/>
<path d="M14 15.2749C14.5523 15.2749 15 14.807 15 14.2299C15 13.6527 14.5523 13.1849 14 13.1849C13.4477 13.1849 13 13.6527 13 14.2299C13 14.807 13.4477 15.2749 14 15.2749Z" fill="white"/>
<path d="M7.32 9.96306C7.42298 9.48023 7.65537 9.03802 7.99 8.68813L8.7 7.9493C8.93167 7.70598 9.20721 7.51308 9.51068 7.38178C9.81416 7.25047 10.1395 7.18337 10.468 7.18435C10.525 7.18435 10.581 7.1948 10.637 7.19793C11.0485 6.22066 11.1348 5.12743 10.8819 4.09293C10.629 3.05842 10.0516 2.14235 9.24196 1.49108C8.43231 0.83981 7.43714 0.490928 6.41545 0.500179C5.39377 0.509431 4.40453 0.876283 3.6058 1.54212C2.80708 2.20795 2.24496 3.13434 2.00927 4.17327C1.77358 5.2122 1.87792 6.3037 2.30561 7.27338C2.7333 8.24305 3.45966 9.03494 4.36864 9.52251C5.27762 10.0101 6.31675 10.1652 7.32 9.96306Z" fill="white"/>
</g>
<defs>
<clipPath id="clip0_822_131">
<rect width="20" height="20" fill="white" transform="translate(0 0.5)"/>
</clipPath>
</defs>
</svg>
